<svg width="76" height="70" viewBox="0 0 76 70" fill="none" xmlns="http://www.w3.org/2000/svg">
<path d="M34.5791 0.351119C34.3376 0.381309 33.5225 0.486975 32.7677 0.577546C26.3523 1.36249 20.0727 3.97395 14.6687 8.07982C12.8875 9.43838 9.59672 12.6536 8.23816 14.3745C4.02662 19.7031 1.3246 25.9373 0.283033 32.7151C-0.0943445 35.1605 -0.0943445 40.8664 0.283033 43.2816C1.95859 54.0596 7.58907 63.0713 16.5254 69.2301L17.6575 70H37.6736H57.6898L58.8219 69.2301C60.9956 67.7357 62.5202 66.4526 64.4675 64.5054C70.1885 58.7692 73.7812 51.5689 75.0643 43.2816C75.4416 40.8513 75.4416 35.1454 75.0643 32.7151C74.0076 25.9373 71.2905 19.6578 67.1091 14.3745C65.6449 12.5329 62.3994 9.378 60.4673 7.92887C55.1538 3.95885 49.7648 1.69458 43.1079 0.622831C41.7493 0.4115 35.6207 0.200168 34.5791 0.351119ZM43.4853 2.20782C51.1687 3.52109 57.8105 6.94769 63.2599 12.4121C65.343 14.4952 67.562 17.2426 67.3205 17.4539C67.245 17.5294 66.46 18.0577 65.5845 18.6464L63.9693 19.7182L63.0183 18.4804C55.1991 8.38172 42.1418 3.85319 29.794 6.97788C28.9939 7.18921 27.8014 7.55149 27.1372 7.77792L25.9296 8.20058L25.1598 6.35898C24.7371 5.3476 24.3899 4.4419 24.3899 4.36642C24.3899 3.98904 30.0506 2.43425 32.7677 2.08706C33.4319 1.99649 34.1867 1.89082 34.4282 1.86063C34.6848 1.83044 36.4057 1.81535 38.2774 1.84554C40.8436 1.87573 42.1116 1.9663 43.4853 2.20782ZM23.7408 6.85712C24.1786 7.89868 24.5258 8.7742 24.4956 8.78929C24.4805 8.80439 23.7408 9.19686 22.8502 9.66481C17.7783 12.3215 13.4762 16.3369 10.4571 21.1975C8.4193 24.5033 7.13622 27.794 6.20032 32.1565C6.13994 32.4735 6.04937 32.5641 5.85313 32.5037C5.71728 32.4584 4.81157 32.3226 3.86058 32.1867C2.90958 32.0509 2.07935 31.8999 2.01897 31.8697C1.91331 31.7943 2.35106 29.6809 2.89449 27.8091C5.20404 19.6578 11.0157 11.9895 18.4274 7.27978C19.5142 6.5854 22.5936 4.94004 22.805 4.94004C22.8955 4.94004 23.3182 5.80046 23.7408 6.85712ZM41.4776 7.73263C43.5758 8.00434 45.7042 8.51758 47.7874 9.24214C50.3083 10.1328 50.1724 9.83085 49.1157 12.0649L48.21 13.9669L47.1232 13.5292C46.5345 13.2725 45.2967 12.8801 44.3608 12.6235C30.8808 9.01572 16.9179 16.7293 12.6459 30.1489C10.6534 36.4285 11.1213 43.2213 13.9743 49.2291C14.3064 49.9235 14.5781 50.5273 14.5781 50.5726C14.5781 50.7386 11.076 52.6557 10.9553 52.55C10.6081 52.1878 9.38539 49.4555 8.78159 47.6441C7.55888 44.0213 7.09093 40.7608 7.22679 36.9417C7.27207 35.6586 7.42302 33.9529 7.55888 33.1679C9.00801 24.3825 14.08 16.7897 21.6728 12.0347C25.2051 9.81576 29.7487 8.23077 34.1263 7.67225C35.8471 7.46092 39.636 7.49111 41.4776 7.73263ZM52.2102 11.2196C52.648 11.446 53.4631 11.9291 54.0518 12.2914C61.4183 17.0614 66.3544 24.5486 67.7884 33.1679C68.4526 37.1681 68.1507 42.5269 67.0336 46.2554L66.8072 47.0252L64.7845 46.361L62.7768 45.6818L63.0334 44.7308C64.6788 38.8286 63.9844 32.066 61.1466 26.3449C58.8974 21.8315 55.0783 17.7709 50.6856 15.2198C50.0818 14.8726 49.6139 14.5405 49.6441 14.4802C49.6743 14.4198 50.0667 13.5744 50.5196 12.6084C50.9724 11.6272 51.3498 10.8271 51.38 10.8271C51.3951 10.8271 51.7725 11.0083 52.2102 11.2196ZM42.3833 13.6801C49.946 15.2198 56.2859 20.0352 59.6823 26.828C60.6635 28.7752 61.6598 31.4169 61.4786 31.598C61.3579 31.7188 57.569 32.5792 57.4784 32.5037C57.4482 32.4584 57.252 31.9452 57.0558 31.3565C55.3953 26.4355 51.4555 21.9371 46.7307 19.5823C45.4929 18.9634 42.6097 18.0124 41.1455 17.7558C39.47 17.4539 35.4999 17.4841 33.8999 17.8162C29.5223 18.737 26.3976 20.4276 23.2125 23.5976L21.3558 25.4543L19.7406 24.3071C18.85 23.6731 18.0953 23.1297 18.0651 23.1146C17.7632 22.873 21.5822 19.0842 23.4842 17.7407C26.7599 15.416 30.5337 13.9971 35.1829 13.3329C36.3302 13.1669 40.9644 13.3933 42.3833 13.6801ZM69.3281 20.3823C71.7282 24.609 73.2981 29.7262 73.7661 34.7378C73.9774 37.0926 73.8717 41.2136 73.5245 43.4175C72.0603 52.7765 67.0789 61.109 59.5616 66.83C58.9427 67.298 58.2483 67.7961 58.037 67.9471L57.6294 68.2037L56.618 66.4526C56.0746 65.4866 55.6368 64.6412 55.667 64.5658C55.6972 64.5054 56.3312 63.977 57.0709 63.4034C63.592 58.3617 67.7884 51.4028 69.2375 43.1911C69.6904 40.64 69.7357 35.8096 69.3281 33.2132C68.7243 29.3337 67.1997 25.0467 65.3581 21.9824C65.0713 21.5145 64.8449 21.0918 64.8449 21.0314C64.8449 20.8805 68.2111 18.6917 68.3318 18.7672C68.4073 18.8125 68.8451 19.537 69.3281 20.3823ZM36.9189 21.0767C36.9189 23.3712 36.934 23.3561 35.9679 23.3561C35.6962 23.3561 34.9414 23.4919 34.2772 23.6429C27.8618 25.1977 23.0767 30.9942 22.971 37.3644C22.9559 38.9795 23.1823 38.7984 20.7973 39.0399C18.3368 39.2965 18.5934 39.5079 18.6991 37.3493C18.7896 35.3114 19.0916 33.6811 19.6652 31.9603C22.0653 24.7448 28.8279 19.5521 36.5868 19.0087C36.9189 18.9785 36.9189 18.9936 36.9189 21.0767ZM41.3719 19.3861C45.1155 20.1106 48.6025 22.0277 51.3498 24.8807C53.9764 27.6129 55.5463 30.6017 56.3463 34.3755C56.7086 36.1567 56.7086 39.855 56.3312 41.6212C55.8934 43.6439 54.8217 46.4365 54.0066 47.629C53.9009 47.7951 53.4782 47.5837 52.1197 46.678L50.3686 45.5157L50.8668 44.5043C54.6557 36.9719 51.1687 27.628 43.3645 24.3976C42.1569 23.8844 40.1191 23.3561 39.3794 23.3561C38.4133 23.3561 38.4284 23.3712 38.4284 21.0616V18.9634L39.3039 19.054C39.7719 19.0993 40.7078 19.2502 41.3719 19.3861ZM19.1519 25.6958C19.8614 26.194 20.4501 26.6468 20.4652 26.7223C20.4652 26.7827 20.1633 27.3563 19.7859 28.0054C15.982 34.6019 16.3895 43.1458 20.8124 49.6216C21.5672 50.7084 24.1182 53.4256 25.0994 54.1652L25.5674 54.5275L24.5409 56.3087C23.9824 57.2899 23.4993 58.1201 23.454 58.1503C23.4239 58.1956 22.9106 57.8333 22.337 57.3654C14.3819 50.9047 11.1213 40.7758 13.8988 31.1301C14.4272 29.3187 15.4083 27.0242 16.314 25.4996L17.0537 24.2618L17.4462 24.5335C17.6575 24.6694 18.4274 25.1977 19.1519 25.6958ZM39.636 24.8656C47.3798 26.0883 52.4367 33.6962 50.5045 41.2589C49.9007 43.6288 48.6478 45.727 46.7609 47.5385L45.7042 48.5649H44.4061H43.1079V45.5761C43.1079 42.6627 43.0928 42.5722 42.7154 41.8023C42.2777 40.9268 41.4021 40.1871 40.4813 39.9456C40.1341 39.855 38.8209 39.8098 37.2963 39.84C34.715 39.8852 34.6999 39.8852 33.9602 40.3381C33.5074 40.6249 33.0545 41.0778 32.7677 41.5306L32.3149 42.2703L32.2696 45.4251L32.2243 48.5649H30.9261H29.643L28.5864 47.5385C26.7146 45.7421 25.4919 43.6892 24.8277 41.2438C24.3597 39.538 24.3597 36.4737 24.8277 34.7529C26.4127 28.8658 31.5752 24.7901 37.5227 24.7297C38.1416 24.7297 39.0926 24.7901 39.636 24.8656ZM62.0372 33.5755C62.2485 34.6019 62.4296 36.67 62.4296 37.9983C62.4296 45.5459 58.8068 52.9123 52.814 57.5163L51.8932 58.2258L50.8366 56.3691L49.7799 54.5275L50.263 54.1501C52.3914 52.4897 54.5953 49.8027 55.8482 47.3573C57.5388 44.0364 58.0973 41.7117 58.0973 37.9983C58.0973 36.6247 58.0219 35.1907 57.9464 34.7831C57.7954 34.1189 57.8105 34.0585 58.1124 33.983C59.5314 33.6359 61.4937 33.183 61.7051 33.183C61.856 33.1679 61.9768 33.3189 62.0372 33.5755ZM5.80785 34.9038C5.6569 37.0021 5.77766 41.123 6.03427 42.7533C7.36264 51.0405 11.6346 58.2862 18.2009 63.3431C18.9859 63.9469 19.6501 64.5054 19.6803 64.5658C19.7105 64.6412 19.2727 65.4866 18.7293 66.4526L17.7179 68.2037L17.3103 67.9471C17.099 67.7961 16.4046 67.298 15.7857 66.83C9.23444 61.8486 4.55495 54.8294 2.5624 46.9648C1.70197 43.5684 1.52083 41.9684 1.52083 37.9983C1.52083 36.0511 1.56612 34.2095 1.64159 33.9076L1.74726 33.3792L3.81529 33.6962L5.88332 34.0132L5.80785 34.9038ZM23.4389 41.6967C24.1182 44.3081 25.4315 46.5573 27.3637 48.4744L28.4203 49.5159L27.4241 51.2519C26.8806 52.2029 26.3523 53.018 26.2466 53.0482C25.9296 53.1538 22.8502 49.9386 21.9294 48.5498C20.4803 46.361 19.2878 43.4175 19.001 41.3495C18.9255 40.7608 18.9406 40.7155 19.2727 40.7004C19.4689 40.7004 20.3143 40.5947 21.1445 40.489C21.9747 40.3834 22.7446 40.3079 22.8653 40.323C23.0012 40.3381 23.2125 40.8362 23.4389 41.6967ZM40.5266 41.591C41.538 42.1344 41.5984 42.4212 41.5984 46.7837V50.6782H41.1455H40.6927V47.0856C40.6927 43.2967 40.6625 43.1307 39.9983 43.1307C39.2284 43.1307 39.1832 43.3269 39.1832 47.146V50.6782H37.6736H36.1641V47.146C36.1641 43.3269 36.1188 43.1307 35.349 43.1307C34.6848 43.1307 34.6546 43.2967 34.6546 47.0856V50.6782H34.2018H33.7489V46.7837C33.7489 43.3118 33.7791 42.8439 34.0206 42.391C34.5188 41.4702 35.0169 41.3193 37.6736 41.3193C39.6511 41.3193 40.104 41.3646 40.5266 41.591ZM51.4555 48.0215L53.0707 49.048L52.7386 49.531C52.2253 50.2858 49.2969 53.1237 49.1006 53.0482C49.0101 53.018 48.4817 52.2179 47.9232 51.267L46.9119 49.5461L48.2251 48.1725C48.9346 47.4177 49.5988 46.8441 49.6894 46.8894C49.7799 46.9347 50.58 47.4479 51.4555 48.0215ZM66.1128 48.4291C66.4147 48.7008 64.6486 52.384 63.0787 54.7539C61.7956 56.7012 60.0748 58.7692 58.6106 60.1127C57.4332 61.2146 55.1991 63.011 54.9123 63.0864C54.8217 63.1166 54.2783 62.3166 53.6896 61.3354L52.648 59.524L53.6594 58.7843C55.1236 57.6824 57.8256 54.8747 58.9879 53.2444C59.9389 51.901 61.7202 48.6404 62.0975 47.5536L62.2636 47.0705L64.1203 47.6894C65.1468 48.0215 66.0374 48.3536 66.1128 48.4291ZM32.2394 50.482C32.2394 50.9952 32.6923 51.7198 33.1753 51.9764C33.3715 52.0972 33.7791 52.1727 34.0961 52.1878H34.6546V57.456V62.7392L34.9867 62.9657C35.2584 63.1619 35.7868 63.2072 37.6736 63.2072C39.5605 63.2072 40.0889 63.1619 40.3606 62.9657L40.6927 62.7392V57.456V52.1878H41.2663C41.5682 52.1727 41.9758 52.0972 42.172 51.9764C42.655 51.7198 43.1079 50.9952 43.1079 50.482V50.0744H44.3004H45.4929L45.9156 50.7839C46.142 51.1915 48.527 55.3275 51.1989 59.9919L56.0746 68.4905H37.6736H19.2727L24.1484 59.9919C26.8203 55.3275 29.2053 51.1915 29.4317 50.7839L29.8544 50.0744H31.0469H32.2394V50.482ZM16.7518 53.7727C17.8387 55.237 20.3143 57.7428 21.6879 58.7692L22.6842 59.524L21.6577 61.3203C21.0841 62.3166 20.5407 63.1166 20.435 63.0864C20.1633 63.011 17.9594 61.2599 16.7971 60.1882C15.197 58.7089 11.8459 54.5426 11.861 54.0445C11.861 53.9841 12.661 53.4708 13.6422 52.9123L15.4083 51.8859L15.6348 52.2179C15.7555 52.4142 16.2688 53.1086 16.7518 53.7727ZM36.9189 56.9427V61.6977H36.5415H36.1641V56.9427V52.1878H36.5415H36.9189V56.9427ZM39.1832 56.9427V61.6977H38.8058H38.4284V56.9427V52.1878H38.8058H39.1832V56.9427Z" fill="#FEFEFC"/>
<path d="M36.3906 32.7602C35.4245 33.3036 35.1075 34.0886 35.1075 35.9905C35.1075 37.7718 35.2736 38.3454 35.9982 38.9492C36.7076 39.5379 37.5379 39.7492 38.2775 39.5228C39.0323 39.2964 39.7719 38.6775 40.0286 38.0435C40.1644 37.7416 40.2399 36.9717 40.2399 35.9905C40.2399 34.6773 40.1946 34.3301 39.9078 33.7716C39.47 32.9262 38.6398 32.413 37.6737 32.413C37.2511 32.413 36.768 32.5489 36.3906 32.7602ZM38.4285 34.2244C38.6851 34.481 38.7304 34.7225 38.7304 36.0207C38.7304 37.4699 38.7153 37.5302 38.3379 37.8321C38.1115 38.0133 37.8247 38.1491 37.6737 38.1491C37.5228 38.1491 37.236 38.0133 37.0095 37.8321C36.6322 37.5302 36.6171 37.4699 36.6171 36.0207C36.6171 34.3301 36.8284 33.9225 37.6737 33.9225C37.9303 33.9225 38.2624 34.0584 38.4285 34.2244Z" fill="#FEFEFC"/>
</svg>
