<svg width="192" height="178" viewBox="0 0 192 178" fill="none" xmlns="http://www.w3.org/2000/svg">
<path d="M88.1146 0.130219C87.4992 0.207153 85.422 0.47641 83.4987 0.707199C67.151 2.7074 51.1494 9.36192 37.3787 19.8245C32.8398 23.2864 24.4544 31.4795 20.9925 35.8646C10.2606 49.4429 3.37534 65.3291 0.721226 82.6C-0.240409 88.8314 -0.240409 103.371 0.721226 109.526C4.99088 136.99 19.3385 159.954 42.11 175.648L44.9949 177.61H96H147.005L149.89 175.648C155.429 171.84 159.314 168.57 164.276 163.608C178.854 148.991 188.009 130.643 191.279 109.526C192.24 103.333 192.24 88.793 191.279 82.6C188.586 65.3291 181.662 49.3275 171.008 35.8646C167.276 31.1718 159.006 23.1325 154.083 19.4398C140.543 9.32346 126.811 3.55365 109.848 0.822601C106.386 0.284088 90.7687 -0.254425 88.1146 0.130219ZM110.809 4.86147C130.388 8.20796 147.313 16.9396 161.199 30.8641C166.507 36.1723 172.161 43.173 171.546 43.7115C171.354 43.9038 169.354 45.2501 167.123 46.7503L163.007 49.4813L160.583 46.3272C140.658 20.5938 107.386 9.0542 75.9211 17.0165C73.8824 17.5551 70.8436 18.4782 69.1512 19.0552L66.0739 20.1322L64.1122 15.4395C63.0352 12.8623 62.1505 10.5544 62.1505 10.362C62.1505 9.40039 76.575 5.43845 83.4987 4.55374C85.1912 4.32295 87.1145 4.0537 87.7299 3.97676C88.3839 3.89983 92.7689 3.86137 97.5386 3.93829C104.078 4.01523 107.309 4.24602 110.809 4.86147ZM60.4964 16.7088C61.6119 19.3629 62.4966 21.5939 62.4197 21.6324C62.3812 21.6708 60.4964 22.6709 58.227 23.8634C45.3026 30.6333 34.34 40.8651 26.6469 53.2509C21.4541 61.6749 18.1845 70.0603 15.7997 81.1768C15.6458 81.9846 15.415 82.2154 14.915 82.0615C14.5688 81.9461 12.2608 81.5999 9.83752 81.2537C7.4142 80.9076 5.29861 80.5229 5.14475 80.446C4.87549 80.2536 5.99098 74.8685 7.37574 70.0988C13.2609 49.3275 28.0701 29.787 46.9566 17.7858C49.7261 16.0164 57.5731 11.8237 58.1116 11.8237C58.3424 11.8237 59.4194 14.0162 60.4964 16.7088ZM105.693 18.9398C111.04 19.6322 116.464 20.94 121.772 22.7863C128.196 25.0558 127.849 24.2865 125.157 29.9794L122.849 34.826L120.079 33.7105C118.579 33.0566 115.425 32.0565 113.04 31.4026C78.6906 22.2094 43.1101 41.8652 32.2244 76.0609C27.1469 92.0625 28.3394 109.372 35.6093 124.681C36.4556 126.451 37.148 127.989 37.148 128.105C37.148 128.528 28.224 133.413 27.9163 133.144C27.0316 132.22 23.9159 125.258 22.3772 120.642C19.2615 111.411 18.0691 103.102 18.4153 93.3703C18.5307 90.1008 18.9154 85.7542 19.2615 83.754C22.9542 61.3671 35.8786 42.019 55.2267 29.9024C64.2276 24.248 75.8057 20.2092 86.9606 18.7859C91.3457 18.2474 101.001 18.3244 105.693 18.9398ZM133.042 27.8253C134.158 28.4023 136.235 29.6332 137.735 30.5564C156.506 42.7114 169.084 61.7903 172.738 83.754C174.431 93.9473 173.662 107.603 170.815 117.103L170.238 119.065L165.084 117.373L159.968 115.642L160.622 113.218C164.815 98.1785 163.045 80.946 155.814 66.3676C150.082 54.8665 140.351 44.5193 129.157 38.0186C127.619 37.1339 126.426 36.2877 126.503 36.1338C126.58 35.98 127.58 33.8259 128.734 31.3641C129.888 28.8639 130.85 26.8252 130.927 26.8252C130.965 26.8252 131.927 27.2868 133.042 27.8253ZM108.001 34.0952C127.272 38.0186 143.428 50.2891 152.083 67.5985C154.583 72.5606 157.122 79.292 156.66 79.7536C156.352 80.0613 146.697 82.2538 146.467 82.0615C146.39 81.9461 145.89 80.6383 145.39 79.1381C141.158 66.5984 131.119 55.1357 119.079 49.1351C115.925 47.5581 108.578 45.1347 104.847 44.4808C100.577 43.7115 90.461 43.7885 86.3837 44.6347C75.2287 46.9811 67.2664 51.2892 59.1502 59.3669L54.4189 64.0982L50.3031 61.1748C48.0337 59.5593 46.1104 58.1745 46.0335 58.136C45.2641 57.5206 54.9959 47.8658 59.8425 44.4424C68.1895 38.5187 77.8059 34.9029 89.6532 33.2105C92.5766 32.7873 104.385 33.3643 108.001 34.0952ZM176.662 51.1738C182.778 61.9441 186.778 74.9839 187.971 87.7544C188.509 93.755 188.24 104.256 187.355 109.872C183.624 133.721 170.931 154.953 151.775 169.532C150.198 170.724 148.428 171.994 147.89 172.378L146.851 173.032L144.274 168.57C142.889 166.108 141.774 163.954 141.851 163.762C141.928 163.608 143.543 162.262 145.428 160.8C162.045 147.953 172.738 130.22 176.431 109.295C177.585 102.794 177.701 90.4854 176.662 83.8694C175.123 73.9838 171.238 63.0596 166.546 55.2511C165.815 54.0587 165.238 52.9817 165.238 52.8278C165.238 52.4432 173.815 46.8657 174.123 47.058C174.316 47.1734 175.431 49.0197 176.662 51.1738ZM94.0767 52.9432C94.0767 58.7899 94.1152 58.7515 91.6534 58.7515C90.961 58.7515 89.0378 59.0977 87.3453 59.4823C70.9975 63.4443 58.804 78.215 58.5347 94.4474C58.4962 98.5632 59.0732 98.1016 52.9957 98.717C46.7258 99.3709 47.3797 99.9095 47.649 94.4089C47.8798 89.2161 48.6491 85.0618 50.1108 80.6768C56.2268 62.2903 73.4593 49.0582 93.2305 47.6734C94.0767 47.5965 94.0767 47.635 94.0767 52.9432ZM105.424 48.6351C114.963 50.4814 123.849 55.3665 130.85 62.6365C137.543 69.5987 141.543 77.2149 143.582 86.8312C144.505 91.3701 144.505 100.794 143.543 105.295C142.428 110.449 139.697 117.565 137.62 120.604C137.35 121.027 136.273 120.488 132.811 118.181L128.349 115.219L129.619 112.642C139.274 93.4473 130.388 69.6372 110.501 61.4056C107.424 60.0978 102.231 58.7515 100.347 58.7515C97.8848 58.7515 97.9233 58.7899 97.9233 52.9047V47.5581L100.154 47.7888C101.347 47.9043 103.732 48.2889 105.424 48.6351ZM48.803 64.7136C50.6108 65.983 52.111 67.1369 52.1495 67.3293C52.1495 67.4831 51.3801 68.9448 50.4185 70.5988C40.7252 87.4082 41.7638 109.18 53.0342 125.681C54.9574 128.451 61.4581 135.375 63.9583 137.259L65.1508 138.183L62.5351 142.721C61.1119 145.222 59.881 147.337 59.7656 147.414C59.6887 147.53 58.3808 146.606 56.9192 145.414C36.6479 128.951 28.3394 103.141 35.417 78.5612C36.7633 73.9453 39.2635 68.0986 41.5715 64.2136L43.4563 61.0594L44.4564 61.7518C44.9949 62.098 46.9566 63.4443 48.803 64.7136ZM101.001 62.598C120.733 65.7137 133.619 85.1003 128.696 104.371C127.157 110.411 123.964 115.757 119.156 120.373L116.464 122.989H113.156H109.848V115.373C109.848 107.949 109.809 107.718 108.847 105.756C107.732 103.525 105.501 101.64 103.155 101.025C102.27 100.794 98.9234 100.679 95.0384 100.756C88.4608 100.871 88.4223 100.871 86.5375 102.025C85.3836 102.756 84.2296 103.91 83.4987 105.064L82.3448 106.949L82.2294 114.988L82.114 122.989H78.806H75.5364L72.8438 120.373C68.0741 115.796 64.9584 110.564 63.266 104.333C62.0735 99.9864 62.0735 92.1779 63.266 87.7929C67.3048 72.7914 80.46 62.4057 95.6153 62.2518C97.1924 62.2518 99.6157 62.4057 101.001 62.598ZM158.083 84.7926C158.622 87.4082 159.083 92.678 159.083 96.0629C159.083 115.296 149.852 134.067 134.581 145.799L132.234 147.607L129.542 142.875L126.849 138.183L128.08 137.221C133.504 132.99 139.12 126.143 142.312 119.911C146.62 111.449 148.044 105.525 148.044 96.0629C148.044 92.5626 147.851 88.9084 147.659 87.8698C147.274 86.1773 147.313 86.0235 148.082 85.8311C151.698 84.9464 156.698 83.7925 157.237 83.7925C157.622 83.754 157.929 84.1386 158.083 84.7926ZM14.7996 88.1775C14.4149 93.5242 14.7226 104.025 15.3765 108.18C18.7615 129.297 29.6472 147.76 46.3796 160.646C48.3798 162.185 50.0723 163.608 50.1493 163.762C50.2262 163.954 49.1107 166.108 47.7259 168.57L45.1488 173.032L44.1102 172.378C43.5717 171.994 41.8023 170.724 40.2252 169.532C23.5312 156.838 11.6069 138.952 6.5295 118.911C4.33697 110.257 3.87539 106.179 3.87539 96.0629C3.87539 91.1009 3.99078 86.4081 4.18311 85.6388L4.45237 84.2925L9.72213 85.1003L14.9919 85.9081L14.7996 88.1775ZM59.7271 105.487C61.4581 112.141 64.8046 117.873 69.7281 122.758L72.4207 125.412L69.882 129.836C68.4972 132.259 67.151 134.336 66.8817 134.413C66.0739 134.682 58.227 126.489 55.8806 122.95C52.1879 117.373 49.1492 109.872 48.4183 104.602C48.226 103.102 48.2645 102.987 49.1107 102.948C49.6107 102.948 51.7648 102.679 53.8804 102.41C55.996 102.14 57.9577 101.948 58.2655 101.987C58.6116 102.025 59.1502 103.294 59.7271 105.487ZM103.27 105.218C105.847 106.602 106.001 107.333 106.001 118.45V128.374H104.847H103.693V119.219C103.693 109.564 103.616 109.141 101.924 109.141C99.9619 109.141 99.8465 109.641 99.8465 119.373V128.374H96H92.1535V119.373C92.1535 109.641 92.0381 109.141 90.0763 109.141C88.3839 109.141 88.3069 109.564 88.3069 119.219V128.374H87.153H85.999V118.45C85.999 109.603 86.0759 108.41 86.6914 107.256C87.9607 104.91 89.2301 104.525 96 104.525C101.039 104.525 102.193 104.641 103.27 105.218ZM131.119 121.604L135.235 124.22L134.388 125.45C133.081 127.374 125.618 134.605 125.118 134.413C124.888 134.336 123.541 132.297 122.118 129.874L119.541 125.489L122.887 121.989C124.695 120.065 126.388 118.604 126.618 118.719C126.849 118.834 128.888 120.142 131.119 121.604ZM168.469 122.643C169.238 123.335 164.738 132.72 160.737 138.76C157.468 143.722 153.083 148.991 149.352 152.415C146.351 155.223 140.658 159.8 139.927 159.992C139.697 160.069 138.312 158.031 136.812 155.53L134.158 150.915L136.735 149.03C140.466 146.222 147.351 139.067 150.313 134.913C152.736 131.49 157.275 123.181 158.237 120.412L158.66 119.181L163.391 120.758C166.007 121.604 168.276 122.45 168.469 122.643ZM82.1525 127.874C82.1525 129.182 83.3064 131.028 84.5373 131.682C85.0374 131.99 86.0759 132.182 86.8837 132.22H88.3069V145.645V159.108L89.1532 159.685C89.8455 160.185 91.1918 160.3 96 160.3C100.808 160.3 102.154 160.185 102.847 159.685L103.693 159.108V145.645V132.22H105.155C105.924 132.182 106.963 131.99 107.463 131.682C108.694 131.028 109.848 129.182 109.848 127.874V126.835H112.886H115.925L117.002 128.643C117.579 129.682 123.657 140.221 130.465 152.107L142.889 173.763H96H49.1107L61.535 152.107C68.3434 140.221 74.4209 129.682 74.9979 128.643L76.0749 126.835H79.1137H82.1525V127.874ZM42.687 136.259C45.4565 139.99 51.7648 146.376 55.2652 148.991L57.8039 150.915L55.1882 155.492C53.7265 158.031 52.3418 160.069 52.0725 159.992C51.3801 159.8 45.7642 155.338 42.8024 152.607C38.725 148.837 30.1857 138.221 30.2242 136.952C30.2242 136.798 32.2628 135.49 34.7631 134.067L39.2635 131.451L39.8405 132.297C40.1483 132.797 41.4561 134.567 42.687 136.259ZM94.0767 144.337V156.454H93.1151H92.1535V144.337V132.22H93.1151H94.0767V144.337ZM99.8465 144.337V156.454H98.8849H97.9233V144.337V132.22H98.8849H99.8465V144.337Z" fill="#DE4747"/>
<path d="M92.7307 82.715C90.269 84.0998 89.4612 86.1 89.4612 90.9466C89.4612 95.4855 89.8843 96.9472 91.7306 98.4858C93.5385 99.986 95.6541 100.524 97.5389 99.9475C99.4622 99.3705 101.347 97.7934 102.001 96.1779C102.347 95.4086 102.539 93.4469 102.539 90.9466C102.539 87.6001 102.424 86.7154 101.693 85.2922C100.578 83.1381 98.4621 81.8303 96.0003 81.8303C94.9233 81.8303 93.6924 82.1765 92.7307 82.715ZM97.9236 86.4462C98.5775 87.1001 98.6929 87.7155 98.6929 91.0235C98.6929 94.7162 98.6544 94.8701 97.6928 95.6394C97.1158 96.101 96.385 96.4472 96.0003 96.4472C95.6156 96.4472 94.8848 96.101 94.3078 95.6394C93.3462 94.8701 93.3077 94.7162 93.3077 91.0235C93.3077 86.7154 93.8462 85.6768 96.0003 85.6768C96.6542 85.6768 97.5005 86.023 97.9236 86.4462Z" fill="#DE4747"/>
</svg>
